# xmcd CD database file
#
# Track frame offsets:
#	150
#	12702
#	22068
#	32265
#	41226
#	54333
#	67797
#	79943
#	90182
#	99681
#	107835
#	125179
#	137194
#	148243
#	158959
#	170793
#
# Disc length: 2424 seconds
#
# Revision: 0
# Processed by: cddbd v1.5.2PL0 Copyright (c) Steve Scherf et al.
# Submitted via: CDex 1.51
#
DISCID=e2097610
DTITLE=Johnny Cash - Love
DYEAR=2005
DGENRE=Country
TTITLE0=I Walk The Line
TTITLE1=Oh, What A Dream
TTITLE2=All Over Again
TTITLE3=Little At A Time
TTITLE4=My Old Faded Rose
TTITLE5=Happiness Is You
TTITLE6=Flesh and Blood
TTITLE7=I Tremble for You
TTITLE8=I Feel Better All Over
TTITLE9='Cause I Love You
TTITLE10=Ballad of Barbra
TTITLE11=Ring of Fire
TTITLE12=My Shoes Keep Walking Back To You
TTITLE13=While I've Got It On My Mind
TTITLE14=I Still Miss Someone
TTITLE15=One Rose (That's Left In My Heart)
EXTD=YEAR: 2005
EXTT0=
EXTT1=
EXTT2=
EXTT3=
EXTT4=
EXTT5=
EXTT6=
EXTT7=
EXTT8=
EXTT9=
EXTT10=
EXTT11=
EXTT12=
EXTT13=
EXTT14=
EXTT15=
PLAYORDER=
